<svg xmlns="http://www.w3.org/2000/svg" xmlns:svg="http://www.w3.org/2000/svg" id="svg3004" width="500" height="300" version="1.1" xml:space="preserve"><metadata id="metadata3010"/><defs id="defs3008"><clipPath id="clipPath3018" clipPathUnits="userSpaceOnUse"><path id="path3020" d="m 0,841.89 1190.55,0 L 1190.55,0 0,0 0,841.89 z"/></clipPath></defs><g id="g3012" transform="matrix(1.25,0,0,-1.25,0,299.99995)"><g id="g4037" transform="matrix(0.52646936,0,0,0.52646936,-198.78755,-329.13702)" style="fill:#000"><path d="m 717.48563,860.61081 0,-95.251 11.881,0 0,-5.379 -82.928,0 0,5.379 15.912,0 0,51.547 c 0,9.188 0.673,17.258 -2.463,25.998 -0.673,2.241 -7.394,15.015 -10.758,9.413 0.898,-3.363 1.346,-7.172 1.346,-10.536 0,-15.013 -10.311,-24.65 -25.102,-24.65 -15.464,0 -26.221,10.757 -26.221,26.221 0,16.136 14.12,24.875 28.911,24.875 15.909,0 28.683,-8.514 36.085,-22.186 l 0.444,0 0,22.637 c 21.513,-0.673 43.254,-2.69 64.774,-2.69 l 0,-5.378 -11.881,0 z" style="fill:#000;fill-opacity:1;fill-rule:nonzero;stroke:none" id="path3492-8"/><path d="m 717.30203,814.96091 109.965,54.98 0,-109.96 -109.965,54.98 z" style="fill:#000;fill-opacity:1;fill-rule:nonzero;stroke:none" id="path3496-8"/><path d="m 827.26683,814.96091 109.959,54.98 0,-109.96 -109.959,54.98 z" style="fill:#000;fill-opacity:1;fill-rule:nonzero;stroke:none" id="path3500-9"/></g><path style="fill:none;stroke:#000;stroke-width:10.65598011;stroke-linecap:round;stroke-linejoin:miter;stroke-miterlimit:4;stroke-opacity:1;stroke-dasharray:none" id="path3853" d="m 203.46377,187.28612 c -27.45075,0 -50.35246,-19.3712 -55.57394,-45.10349 -3.44679,1.17208 -7.14406,1.80525 -10.97036,1.80525 -19.34846,0 -35.02186,-16.21547 -35.02186,-36.21609 0,-0.60638 0.027,-1.20619 0.0555,-1.80525 -3.102214,0.66791 -10.581311,5.31225 -13.823552,6.53848 C 66.272675,120.77134 53.229297,100.0373 53.47142,87.7148 53.817231,70.11472 74.932632,60.54264 91.672305,60.54264 c 4.844066,0 6.2612,0 15.831735,0 l 167.32364,0 c 1.76127,-0.25453 13.79694,0 15.62247,0 22.39201,0 38.1869,29.96252 38.1869,54.31111 0,24.34861 -18.15669,44.10366 -40.5487,44.10366 -11.72773,0 -22.28649,-5.42553 -29.68942,-14.08095 -6.22222,24.37946 -28.45059,42.40951 -54.93517,42.40951 z"/></g></svg>