<svg xmlns="http://www.w3.org/2000/svg" xmlns:svg="http://www.w3.org/2000/svg" id="svg2" width="297mm" height="210mm" version="1.1" viewBox="0 0 297 210"><defs id="defs4"><clipPath id="clipPath3018" clipPathUnits="userSpaceOnUse"><path id="path3020" d="m 0,841.89 1190.55,0 L 1190.55,0 0,0 0,841.89 Z"/></clipPath></defs><metadata id="metadata7"/><g id="layer1" transform="translate(0,-87)"><flowRoot id="flowRoot4141" xml:space="preserve" style="font-style:normal;font-weight:400;font-size:96px;line-height:125%;font-family:sans-serif;letter-spacing:0;word-spacing:0;fill:#000;fill-opacity:1;stroke:none;stroke-width:1px;stroke-linecap:butt;stroke-linejoin:miter;stroke-opacity:1"><flowRegion id="flowRegion4143" style="font-size:96px"><rect id="rect4145" width="633.366" height="295.975" x="86.873" y="425.514" style="font-size:96px"/></flowRegion><flowPara id="flowPara4147"/></flowRoot><flowRoot id="flowRoot4149" transform="scale(0.26458333)" xml:space="preserve" style="font-style:normal;font-weight:400;font-size:40px;line-height:125%;font-family:sans-serif;letter-spacing:0;word-spacing:0;fill:#000;fill-opacity:1;stroke:none;stroke-width:1px;stroke-linecap:butt;stroke-linejoin:miter;stroke-opacity:1"><flowRegion id="flowRegion4151"><rect id="rect4153" width="574.777" height="330.32" x="80.812" y="443.697"/></flowRegion><flowPara id="flowPara4155" style="font-style:normal;font-variant:normal;font-weight:700;font-stretch:normal;font-size:192px;font-family:Nintend;-inkscape-font-specification:'Nintend Bold'">Radare</flowPara></flowRoot><flowRoot id="flowRoot4157" xml:space="preserve" style="font-style:normal;font-variant:normal;font-weight:700;font-stretch:normal;font-size:133.33332825px;line-height:125%;font-family:Nintend;-inkscape-font-specification:'Nintend Bold';letter-spacing:0;word-spacing:0;fill:#000;fill-opacity:1;stroke:none;stroke-width:1px;stroke-linecap:butt;stroke-linejoin:miter;stroke-opacity:1"><flowRegion id="flowRegion4159" style="font-style:normal;font-variant:normal;font-weight:700;font-stretch:normal;font-size:133.33332825px;font-family:Nintend;-inkscape-font-specification:'Nintend Bold'"><rect id="rect4161" width="668.571" height="460" x="82.857" y="222.52" style="font-style:normal;font-variant:normal;font-weight:700;font-stretch:normal;font-size:133.33332825px;font-family:Nintend;-inkscape-font-specification:'Nintend Bold'"/></flowRegion><flowPara id="flowPara4163"/></flowRoot><flowRoot id="flowRoot4168" transform="scale(0.26458333)" xml:space="preserve" style="font-style:normal;font-weight:400;font-size:40px;line-height:125%;font-family:sans-serif;letter-spacing:0;word-spacing:0;fill:red;fill-opacity:1;stroke:none;stroke-width:1px;stroke-linecap:butt;stroke-linejoin:miter;stroke-opacity:1"><flowRegion id="flowRegion4170" style="fill:red;fill-opacity:1"><rect id="rect4172" width="611.429" height="482.857" x="71.429" y="256.805" style="fill:red;fill-opacity:1"/></flowRegion><flowPara id="flowPara4174" style="font-style:normal;font-variant:normal;font-weight:700;font-stretch:normal;font-size:133.33332825px;font-family:Nintend;-inkscape-font-specification:'Nintend Bold';fill:#000;fill-opacity:1">r2con2019</flowPara></flowRoot><text xml:space="preserve" style="font-style:normal;font-weight:400;font-size:10.58333302px;line-height:125%;font-family:sans-serif;letter-spacing:0;word-spacing:0;fill:#000;fill-opacity:1;stroke:none;stroke-width:.26458332px;stroke-linecap:butt;stroke-linejoin:miter;stroke-opacity:1" id="text4176" x="-120.196" y="12.762"><tspan id="tspan4178" x="-120.196" y="12.762" style="stroke-width:.26458332px">+</tspan></text><path id="path3492-8" style="fill:#000;fill-opacity:1;fill-rule:nonzero;stroke:none;stroke-width:.30668911" d="m 92.256581,150.40073 0,29.21246 3.64377,0 0,1.64969 -25.43311,0 0,-1.64969 4.880037,0 0,-15.80891 c 0,-2.81786 0.206402,-5.29285 -0.755376,-7.9733 -0.2064,-0.68729 -2.267658,-4.60494 -3.299362,-2.88687 0.275409,1.03139 0.412805,2.19958 0.412805,3.23128 0,4.60432 -3.16227,7.55988 -7.69851,7.55988 -4.742641,0 -8.041695,-3.29905 -8.041695,-8.04168 0,-4.94875 4.33045,-7.6289 8.866688,-7.6289 4.879117,0 8.796764,2.61115 11.066877,6.8042 l 0.136169,0 0,-6.94252 c 6.597803,0.2064 13.265534,0.825 19.865477,0.825 l 0,1.64936 -3.64377,0 z"/><path id="path4242-1" style="font-style:normal;font-variant:normal;font-weight:700;font-stretch:normal;font-size:106.66667175px;line-height:125%;font-family:Nintend;-inkscape-font-specification:'Nintend Bold';letter-spacing:0;word-spacing:0;fill:#000;fill-opacity:1;stroke:none;stroke-width:.34832731px;stroke-linecap:butt;stroke-linejoin:miter;stroke-opacity:1" d="m 98.187511,182.8713 0,-1.62983 23.231559,0 0,1.62983 -23.231559,0 z"/><path id="path4244-4" style="font-style:normal;font-variant:normal;font-weight:700;font-stretch:normal;font-size:106.66667175px;line-height:125%;font-family:Nintend;-inkscape-font-specification:'Nintend Bold';letter-spacing:0;word-spacing:0;fill:#000;fill-opacity:1;stroke:none;stroke-width:.58158672px;stroke-linecap:butt;stroke-linejoin:miter;stroke-opacity:1" d="m 144.84319,169.12071 13.26744,0 q -0.36349,1.12077 -0.90872,2.21124 -1.42369,2.90793 -4.11958,5.14946 -2.60502,2.24154 -6.02791,3.48348 -3.54403,1.27222 -7.45158,1.27222 -3.84694,0 -7.42128,-1.27222 -3.42288,-1.24194 -6.05819,-3.48348 -2.60503,-2.24153 -4.08928,-5.14946 -1.48427,-2.9988 -1.48427,-6.33082 0,-3.30171 1.48427,-6.30052 1.48425,-2.90794 4.08928,-5.14947 2.63531,-2.21124 6.05819,-3.45317 3.57434,-1.30251 7.42128,-1.30251 3.90755,0 7.45158,1.30251 3.42289,1.24193 6.02791,3.45317 2.69589,2.24153 4.11958,5.14947 0.54523,1.09047 0.90872,2.24153 l -13.26744,0 0,-2.09007 q 0,-3.18055 -1.6963,-4.96773 -1.42367,-1.51454 -3.63491,-1.51454 -2.18095,0 -3.60462,1.51454 -1.7266,1.78718 -1.7266,4.96773 l 0,12.23755 q 0,3.24114 1.666,4.96772 1.48427,1.51456 3.66522,1.51456 2.21124,0 3.66521,-1.51456 1.666,-1.72658 1.666,-4.96772 l 0,-1.96891 z"/><path id="path4246-4" style="font-style:normal;font-variant:normal;font-weight:700;font-stretch:normal;font-size:106.66667175px;line-height:125%;font-family:Nintend;-inkscape-font-specification:'Nintend Bold';letter-spacing:0;word-spacing:0;fill:#000;fill-opacity:1;stroke:none;stroke-width:.58158672px;stroke-linecap:butt;stroke-linejoin:miter;stroke-opacity:1" d="m 187.12939,158.85207 q 0,-3.18055 -1.6963,-4.96773 -1.42367,-1.51454 -3.63491,-1.51454 -2.18095,0 -3.60462,1.51454 -1.7266,1.78718 -1.7266,4.96773 l 0,12.23755 q 0,3.24114 1.66602,4.96772 1.48425,1.51456 3.6652,1.51456 2.21124,0 3.66521,-1.51456 1.666,-1.72658 1.666,-4.96772 l 0,-12.23755 z m -5.24033,-10.05661 q 3.90753,0 7.45158,1.30251 3.42288,1.24193 6.02789,3.45317 2.69591,2.24153 4.11958,5.14947 1.51455,2.99881 1.51455,6.30052 0,3.33202 -1.51455,6.33082 -1.42367,2.90793 -4.11958,5.14946 -2.60501,2.24154 -6.02789,3.48348 -3.54405,1.27222 -7.45158,1.27222 -3.84697,0 -7.4213,-1.27222 -3.42288,-1.24194 -6.05819,-3.48348 -2.60503,-2.24153 -4.08928,-5.14946 -1.48427,-2.9988 -1.48427,-6.33082 0,-3.30171 1.48427,-6.30052 1.48425,-2.90794 4.08928,-5.14947 2.63531,-2.21124 6.05819,-3.45317 3.57433,-1.30251 7.4213,-1.30251 z"/><path id="path4248-7" style="font-style:normal;font-variant:normal;font-weight:700;font-stretch:normal;font-size:106.66667175px;line-height:125%;font-family:Nintend;-inkscape-font-specification:'Nintend Bold';letter-spacing:0;word-spacing:0;fill:#000;fill-opacity:1;stroke:none;stroke-width:.58158672px;stroke-linecap:butt;stroke-linejoin:miter;stroke-opacity:1" d="m 229.53676,149.46186 q 2.09008,0 4.3922,0.57553 2.66559,0.75728 4.78597,2.33241 5.54325,3.96812 5.54325,11.57116 l 0,15.721 -13.02513,0 0,-18.99244 q 0,-1.99919 -1.60541,-3.57433 -1.75689,-1.72658 -4.33161,-1.72658 -2.57474,0 -4.42248,1.72658 -1.78718,1.60542 -1.78718,3.57433 l 0,18.99244 -12.93424,0 0,-28.89759 12.93424,0 0,3.0291 q 4.39221,-4.33161 10.45039,-4.33161 z"/><rect style="fill:none;fill-opacity:1;stroke:#000;stroke-width:7.70280647;stroke-linejoin:round;stroke-miterlimit:4;stroke-dasharray:none;stroke-opacity:1" id="rect4198-3-7" width="236.8" height="61.626" x="32.598" y="134.534" ry="30.328"/><g style="font-style:normal;font-weight:400;font-size:15.0241375px;line-height:100%;font-family:sans-serif;letter-spacing:0;word-spacing:0;fill:#000;fill-opacity:1;stroke:none;stroke-width:.37560344px;stroke-linecap:butt;stroke-linejoin:miter;stroke-opacity:1" id="text4254" aria-label="staff" transform="translate(-4.9136905,38.175595)"><path d="m 94.681316,196.75075 q -1.38895,-1.38895 -1.38895,-3.4039 0,-2.71922 2.856151,-4.44073 2.856151,-1.72152 8.470643,-1.72152 9.17489,0 10.93553,6.31875 l -7.94244,0 q -0.25432,-4.01035 -3.05178,-4.01035 -3.05178,0 -3.05178,2.6214 0,1.58458 1.23245,2.40621 1.25201,0.82163 5.57536,1.60414 4.34292,0.7825 6.00574,2.15189 1.66283,1.36939 1.66283,3.67779 0,2.54314 -2.75834,4.36247 -2.75833,1.81933 -8.60757,1.81933 -9.722655,0 -11.287669,-6.69043 l 7.785949,0 q 0.66513,4.32335 3.63866,4.32335 3.05177,0 3.05177,-2.42577 0,-1.46721 -1.11507,-2.24971 -1.09551,-0.80207 -5.8688,-1.87802 -4.753734,-1.09551 -6.142684,-2.4649 z" style="font-style:normal;font-variant:normal;font-weight:700;font-stretch:normal;font-size:40.06436539px;line-height:100%;font-family:Nintend;-inkscape-font-specification:'Nintend, Bold';font-variant-ligatures:none;font-variant-caps:normal;font-variant-numeric:normal;text-align:start;writing-mode:lr-tb;text-anchor:start;stroke-width:.37560344px" id="path3395"/><path d="m 131.98734,185.73697 4.55811,0 0,2.7779 -4.55811,0 0,18.6041 -8.45107,0 0,-18.6041 -4.59723,0 0,-2.7779 4.59723,0 0,-3.7756 8.45107,0 0,3.7756 z" style="font-style:normal;font-variant:normal;font-weight:700;font-stretch:normal;font-size:40.06436539px;line-height:100%;font-family:Nintend;-inkscape-font-specification:'Nintend, Bold';font-variant-ligatures:none;font-variant-caps:normal;font-variant-numeric:normal;text-align:start;writing-mode:lr-tb;text-anchor:start;stroke-width:.37560344px" id="path3397"/><path d="m 154.99306,188.47574 8.31413,0 0,18.64323 -8.3337,0 0,-1.29113 q -2.32796,1.81933 -4.98848,1.81933 -3.46259,0 -5.94705,-1.60414 -1.07595,-0.70426 -1.93671,-1.62371 -2.60184,-2.83659 -2.60184,-6.92519 0,-1.83889 0.82164,-3.69734 0.84119,-1.81933 2.28883,-3.22784 1.50633,-1.50633 3.34522,-2.17146 1.85845,-0.68469 4.0886,-0.68469 2.9344,0 4.94936,2.07364 l 0,-1.3107 z m 0.0587,5.88837 q 0,-1.95627 -1.15419,-2.89528 -0.89989,-0.70426 -2.1519,-0.70426 -1.27157,0 -2.17146,0.70426 -1.13463,0.93901 -1.13463,2.89528 l 0,6.63174 q 0,1.93671 1.13463,2.89528 0.89989,0.74338 2.17146,0.74338 1.25201,0 2.1519,-0.74338 1.15419,-0.95857 1.15419,-2.89528 l 0,-6.63174 z" style="font-style:normal;font-variant:normal;font-weight:700;font-stretch:normal;font-size:40.06436539px;line-height:100%;font-family:Nintend;-inkscape-font-specification:'Nintend, Bold';font-variant-ligatures:none;font-variant-caps:normal;font-variant-numeric:normal;text-align:start;writing-mode:lr-tb;text-anchor:start;stroke-width:.37560344px" id="path3399"/><path d="m 182.16561,181.84399 q -2.68008,0 -2.68008,2.52359 l 0,1.36939 4.5581,0 0,2.7779 -4.5581,0 0,18.6041 -8.45108,0 0,-18.6041 -4.59723,0 0,-2.7779 4.59723,0 q 0,-6.67088 8.58802,-6.67088 l 4.42116,0 0,2.7779 -1.87802,0 z" style="font-style:normal;font-variant:normal;font-weight:700;font-stretch:normal;font-size:40.06436539px;line-height:100%;font-family:Nintend;-inkscape-font-specification:'Nintend, Bold';font-variant-ligatures:none;font-variant-caps:normal;font-variant-numeric:normal;text-align:start;writing-mode:lr-tb;text-anchor:start;stroke-width:.37560344px" id="path3401"/><path d="m 202.6673,181.84399 q -2.68009,0 -2.68009,2.52359 l 0,1.36939 4.55811,0 0,2.7779 -4.55811,0 0,18.6041 -8.45107,0 0,-18.6041 -4.59723,0 0,-2.7779 4.59723,0 q 0,-6.67088 8.58801,-6.67088 l 4.42117,0 0,2.7779 -1.87802,0 z" style="font-style:normal;font-variant:normal;font-weight:700;font-stretch:normal;font-size:40.06436539px;line-height:100%;font-family:Nintend;-inkscape-font-specification:'Nintend, Bold';font-variant-ligatures:none;font-variant-caps:normal;font-variant-numeric:normal;text-align:start;writing-mode:lr-tb;text-anchor:start;stroke-width:.37560344px" id="path3403"/></g></g></svg>